<svg xmlns="http://www.w3.org/2000/svg" xmlns:xlink="http://www.w3.org/1999/xlink" width="300" zoomAndPan="magnify" viewBox="0 0 224.87999 187.499995" height="250" preserveAspectRatio="xMidYMid meet" version="1.0"><defs><g/><clipPath id="9ace332aa7"><path d="M 134 147 L 147 147 L 147 155 L 134 155 Z M 134 147 " clip-rule="nonzero"/></clipPath><clipPath id="cea57c9b0f"><path d="M 64.480469 18.699219 L 187.6875 43.445312 L 160.144531 180.582031 L 36.941406 155.839844 Z M 64.480469 18.699219 " clip-rule="nonzero"/></clipPath><clipPath id="a0f10e9d04"><path d="M 64.480469 18.699219 L 187.6875 43.445312 L 160.144531 180.582031 L 36.941406 155.839844 Z M 64.480469 18.699219 " clip-rule="nonzero"/></clipPath><clipPath id="f2cfe4b29b"><path d="M 148 143 L 155 143 L 155 148 L 148 148 Z M 148 143 " clip-rule="nonzero"/></clipPath><clipPath id="1eb678888b"><path d="M 64.480469 18.699219 L 187.6875 43.445312 L 160.144531 180.582031 L 36.941406 155.839844 Z M 64.480469 18.699219 " clip-rule="nonzero"/></clipPath><clipPath id="804ecbba48"><path d="M 64.480469 18.699219 L 187.6875 43.445312 L 160.144531 180.582031 L 36.941406 155.839844 Z M 64.480469 18.699219 " clip-rule="nonzero"/></clipPath><clipPath id="9666430af3"><path d="M 154 141 L 157 141 L 157 144 L 154 144 Z M 154 141 " clip-rule="nonzero"/></clipPath><clipPath id="c7b1a912fc"><path d="M 64.480469 18.699219 L 187.6875 43.445312 L 160.144531 180.582031 L 36.941406 155.839844 Z M 64.480469 18.699219 " clip-rule="nonzero"/></clipPath><clipPath id="04db07086b"><path d="M 64.480469 18.699219 L 187.6875 43.445312 L 160.144531 180.582031 L 36.941406 155.839844 Z M 64.480469 18.699219 " clip-rule="nonzero"/></clipPath><clipPath id="9628d34e54"><path d="M 48 34 L 168 34 L 168 170 L 48 170 Z M 48 34 " clip-rule="nonzero"/></clipPath><clipPath id="93719a7e83"><path d="M 64.480469 18.699219 L 187.6875 43.445312 L 160.144531 180.582031 L 36.941406 155.839844 Z M 64.480469 18.699219 " clip-rule="nonzero"/></clipPath><clipPath id="8d5585d921"><path d="M 64.480469 18.699219 L 187.6875 43.445312 L 160.144531 180.582031 L 36.941406 155.839844 Z M 64.480469 18.699219 " clip-rule="nonzero"/></clipPath><clipPath id="62ef46f26f"><path d="M 63 31 L 123 31 L 123 62 L 63 62 Z M 63 31 " clip-rule="nonzero"/></clipPath><clipPath id="a9419d4f13"><path d="M 64.480469 18.699219 L 187.6875 43.445312 L 160.144531 180.582031 L 36.941406 155.839844 Z M 64.480469 18.699219 " clip-rule="nonzero"/></clipPath><clipPath id="c8dfc423e1"><path d="M 64.480469 18.699219 L 187.6875 43.445312 L 160.144531 180.582031 L 36.941406 155.839844 Z M 64.480469 18.699219 " clip-rule="nonzero"/></clipPath><clipPath id="50bdea4f9a"><path d="M 65 49 L 72 49 L 72 56 L 65 56 Z M 65 49 " clip-rule="nonzero"/></clipPath><clipPath id="daf231b93c"><path d="M 64.480469 18.699219 L 187.6875 43.445312 L 160.144531 180.582031 L 36.941406 155.839844 Z M 64.480469 18.699219 " clip-rule="nonzero"/></clipPath><clipPath id="2cdc0e45e5"><path d="M 64.480469 18.699219 L 187.6875 43.445312 L 160.144531 180.582031 L 36.941406 155.839844 Z M 64.480469 18.699219 " clip-rule="nonzero"/></clipPath><clipPath id="8c9d8763e6"><path d="M 151 42 L 152 42 L 152 44 L 151 44 Z M 151 42 " clip-rule="nonzero"/></clipPath><clipPath id="58edd2c8f1"><path d="M 64.480469 18.699219 L 187.6875 43.445312 L 160.144531 180.582031 L 36.941406 155.839844 Z M 64.480469 18.699219 " clip-rule="nonzero"/></clipPath><clipPath id="275035e8d4"><path d="M 64.480469 18.699219 L 187.6875 43.445312 L 160.144531 180.582031 L 36.941406 155.839844 Z M 64.480469 18.699219 " clip-rule="nonzero"/></clipPath><clipPath id="6307b60b5b"><path d="M 146 40 L 151 40 L 151 43 L 146 43 Z M 146 40 " clip-rule="nonzero"/></clipPath><clipPath id="d621bf709e"><path d="M 64.480469 18.699219 L 187.6875 43.445312 L 160.144531 180.582031 L 36.941406 155.839844 Z M 64.480469 18.699219 " clip-rule="nonzero"/></clipPath><clipPath id="1b95a499cb"><path d="M 64.480469 18.699219 L 187.6875 43.445312 L 160.144531 180.582031 L 36.941406 155.839844 Z M 64.480469 18.699219 " clip-rule="nonzero"/></clipPath><clipPath id="2da10043c0"><path d="M 144 39 L 147 39 L 147 41 L 144 41 Z M 144 39 " clip-rule="nonzero"/></clipPath><clipPath id="67b837549c"><path d="M 64.480469 18.699219 L 187.6875 43.445312 L 160.144531 180.582031 L 36.941406 155.839844 Z M 64.480469 18.699219 " clip-rule="nonzero"/></clipPath><clipPath id="c74965d13c"><path d="M 64.480469 18.699219 L 187.6875 43.445312 L 160.144531 180.582031 L 36.941406 155.839844 Z M 64.480469 18.699219 " clip-rule="nonzero"/></clipPath><clipPath id="ede11349a3"><path d="M 67 151 L 94 151 L 94 166 L 67 166 Z M 67 151 " clip-rule="nonzero"/></clipPath><clipPath id="e8448b81bd"><path d="M 64.480469 18.699219 L 187.6875 43.445312 L 160.144531 180.582031 L 36.941406 155.839844 Z M 64.480469 18.699219 " clip-rule="nonzero"/></clipPath><clipPath id="e22a3861d0"><path d="M 64.480469 18.699219 L 187.6875 43.445312 L 160.144531 180.582031 L 36.941406 155.839844 Z M 64.480469 18.699219 " clip-rule="nonzero"/></clipPath><clipPath id="c5ed511337"><path d="M 122 32 L 136 32 L 136 34 L 122 34 Z M 122 32 " clip-rule="nonzero"/></clipPath><clipPath id="ee1bb6f708"><path d="M 64.480469 18.699219 L 187.6875 43.445312 L 160.144531 180.582031 L 36.941406 155.839844 Z M 64.480469 18.699219 " clip-rule="nonzero"/></clipPath><clipPath id="2cb800c189"><path d="M 64.480469 18.699219 L 187.6875 43.445312 L 160.144531 180.582031 L 36.941406 155.839844 Z M 64.480469 18.699219 " clip-rule="nonzero"/></clipPath><clipPath id="b00706ff14"><path d="M 136 34 L 151 34 L 151 40 L 136 40 Z M 136 34 " clip-rule="nonzero"/></clipPath><clipPath id="908ae980cf"><path d="M 64.480469 18.699219 L 187.6875 43.445312 L 160.144531 180.582031 L 36.941406 155.839844 Z M 64.480469 18.699219 " clip-rule="nonzero"/></clipPath><clipPath id="50c4386f94"><path d="M 64.480469 18.699219 L 187.6875 43.445312 L 160.144531 180.582031 L 36.941406 155.839844 Z M 64.480469 18.699219 " clip-rule="nonzero"/></clipPath><clipPath id="a662736554"><path d="M 150 39 L 161 39 L 161 46 L 150 46 Z M 150 39 " clip-rule="nonzero"/></clipPath><clipPath id="2daeb11851"><path d="M 64.480469 18.699219 L 187.6875 43.445312 L 160.144531 180.582031 L 36.941406 155.839844 Z M 64.480469 18.699219 " clip-rule="nonzero"/></clipPath><clipPath id="d43df1c2f1"><path d="M 64.480469 18.699219 L 187.6875 43.445312 L 160.144531 180.582031 L 36.941406 155.839844 Z M 64.480469 18.699219 " clip-rule="nonzero"/></clipPath></defs><g clip-path="url(#9ace332aa7)"><g clip-path="url(#cea57c9b0f)"><g clip-path="url(#a0f10e9d04)"><path fill="#e1d6c0" d="M 134.945312 154.390625 C 135.207031 154.59375 136.015625 154.238281 137.101562 153.632812 C 138.136719 152.914062 139.421875 151.894531 140.71875 150.941406 C 141.375 150.484375 142 149.984375 142.59375 149.449219 C 143.140625 148.988281 143.714844 148.558594 144.3125 148.160156 C 145.410156 147.464844 146.367188 147.109375 146.996094 147.34375 C 146.796875 147.257812 146.539062 147.367188 146.210938 147.585938 C 145.78125 147.855469 145.382812 148.160156 145.015625 148.507812 C 144.101562 149.300781 143.035156 150.515625 141.804688 151.589844 C 140.539062 152.597656 139.195312 153.585938 137.988281 154.222656 C 136.78125 154.859375 135.636719 154.902344 134.945312 154.390625 Z M 134.945312 154.390625 " fill-opacity="1" fill-rule="evenodd"/></g></g></g><g clip-path="url(#f2cfe4b29b)"><g clip-path="url(#1eb678888b)"><g clip-path="url(#804ecbba48)"><path fill="#e1d6c0" d="M 154.480469 143.378906 C 153.4375 144.238281 152.464844 145.378906 151.308594 146.171875 C 148.03125 148.429688 147.925781 147.925781 149.078125 146.808594 C 149.644531 146.238281 150.570312 145.570312 151.539062 144.921875 C 152.464844 144.226562 153.507812 143.617188 154.480469 143.378906 Z M 154.480469 143.378906 " fill-opacity="1" fill-rule="evenodd"/></g></g></g><g clip-path="url(#9666430af3)"><g clip-path="url(#c7b1a912fc)"><g clip-path="url(#04db07086b)"><path fill="#e1d6c0" d="M 154.480469 143.378906 C 155.144531 142.441406 155.691406 142 156.082031 141.84375 C 156.445312 141.660156 156.683594 141.789062 156.738281 142.046875 C 156.894531 142.59375 156.15625 143.519531 154.480469 143.378906 Z M 154.480469 143.378906 " fill-opacity="1" fill-rule="evenodd"/></g></g></g><g clip-path="url(#9628d34e54)"><g clip-path="url(#93719a7e83)"><g clip-path="url(#8d5585d921)"><path fill="#e1d6c0" d="M 78.964844 151.933594 C 62.152344 140.167969 52.191406 119.308594 53.207031 98.9375 C 53.605469 89.183594 56.933594 80.160156 61.660156 71.402344 C 65.113281 64.875 69.71875 58.804688 75.394531 53.851562 C 81.132812 48.796875 87.546875 44.847656 94.636719 41.996094 C 108.773438 36.273438 124.8125 35.242188 140.019531 38.882812 C 140.824219 39.082031 140.519531 38.4375 139.722656 37.929688 C 137.4375 36.46875 134.46875 35.40625 131.214844 35.117188 C 128.007812 34.570312 124.585938 34.785156 121.394531 34.535156 C 114.871094 34.453125 108.546875 34.949219 102.46875 36.359375 C 101.015625 36.714844 99.585938 37.214844 98.144531 37.667969 L 95.996094 38.382812 L 93.917969 39.316406 C 92.542969 39.960938 91.152344 40.539062 89.816406 41.25 L 85.925781 43.539062 C 81.050781 46.652344 76.503906 50.195312 72.289062 54.160156 C 71.632812 54.75 70.960938 55.328125 70.265625 55.894531 C 69.566406 56.457031 68.972656 57.132812 68.300781 57.738281 C 67.628906 58.34375 66.957031 58.972656 66.28125 59.597656 C 65.578125 60.195312 64.921875 60.84375 64.316406 61.539062 C 63.074219 62.914062 61.800781 64.296875 60.589844 65.742188 C 59.515625 67.277344 58.472656 68.855469 57.515625 70.484375 C 54.851562 75.695312 52.398438 81.105469 51.035156 86.863281 L 50.445312 89.003906 C 50.269531 89.722656 50.175781 90.453125 50.03125 91.179688 L 49.242188 95.558594 L 48.855469 99.996094 C 48.800781 100.738281 48.703125 101.480469 48.691406 102.222656 L 48.707031 104.453125 C 48.554688 110.429688 49.554688 116.386719 51.066406 122.1875 L 52.445312 126.472656 C 52.867188 127.917969 53.59375 129.242188 54.167969 130.628906 C 55.285156 133.429688 56.910156 135.96875 58.4375 138.546875 C 62.597656 144.859375 68.316406 150.070312 74.394531 154.191406 L 79.027344 157.117188 C 80.648438 157.945312 82.242188 158.78125 83.804688 159.625 C 84.578125 160.0625 85.375 160.449219 86.195312 160.777344 L 88.597656 161.863281 L 90.960938 162.976562 L 93.367188 163.929688 C 94.953125 164.550781 96.066406 166.316406 99.449219 167.386719 C 108.238281 170.453125 118.265625 170.46875 127.730469 168.222656 C 137.273438 166.027344 146.207031 161.53125 154.40625 155.984375 C 155.621094 155.101562 157.230469 154.210938 158.769531 153.09375 C 160.277344 151.9375 161.855469 150.71875 163.25 149.539062 C 165.855469 146.976562 167.652344 144.507812 166.875 143.273438 C 165.519531 141.160156 162.722656 142.082031 160.007812 143.707031 C 158.703125 144.585938 157.128906 145.390625 155.824219 146.269531 C 154.515625 147.148438 153.34375 147.980469 152.398438 148.40625 C 151.515625 148.867188 150.667969 149.34375 149.863281 149.832031 C 149.054688 150.320312 148.296875 150.835938 147.488281 151.226562 C 145.902344 152.0625 144.484375 152.972656 143.15625 153.777344 C 140.386719 155.171875 138.226562 156.667969 136.59375 157.261719 L 133.199219 158.742188 C 132.015625 159.152344 130.84375 159.503906 129.660156 159.894531 C 127.320312 160.769531 124.84375 161.132812 122.40625 161.699219 C 121.179688 161.976562 119.925781 162.019531 118.679688 162.191406 C 117.433594 162.292969 116.179688 162.566406 114.921875 162.523438 C 112.40625 162.53125 109.863281 162.683594 107.347656 162.347656 C 102.265625 162.070312 97.3125 160.722656 92.460938 159.148438 C 87.726562 157.246094 83.054688 155.027344 78.964844 151.933594 Z M 61.601562 65.238281 C 61.828125 65.179688 60.460938 67.855469 59.019531 70.660156 C 58.21875 72.023438 57.722656 73.589844 57.1875 74.765625 C 56.679688 75.957031 56.296875 76.847656 56.191406 77.101562 C 55.765625 77.964844 55.570312 79.183594 55.265625 80.441406 C 55.007812 81.710938 54.660156 83.035156 54.460938 84.308594 C 54.105469 86.867188 53.59375 89.03125 52.542969 89.515625 C 52.660156 89.464844 53.0625 86.839844 53.511719 83.910156 C 54.183594 81.050781 54.964844 77.867188 55.4375 76.796875 C 55.703125 76.210938 56.035156 75.203125 56.421875 74 C 56.832031 72.820312 57.179688 71.375 57.84375 70.128906 C 59.085938 67.601562 60.351562 65.210938 61.601562 65.234375 Z M 49.988281 98.214844 C 49.660156 98.4375 49.671875 99.542969 49.832031 101.082031 C 49.992188 102.621094 50.585938 104.578125 51.003906 106.53125 C 51.367188 108.496094 52.140625 110.402344 52.390625 111.996094 C 52.539062 112.683594 52.601562 113.382812 52.589844 114.085938 C 52.59375 114.667969 52.507812 115.125 52.25 115.421875 C 52.570312 115.03125 52.269531 113.996094 51.839844 112.554688 C 51.410156 111.113281 50.554688 109.300781 50.015625 107.378906 C 49.503906 105.457031 49.003906 103.445312 48.886719 101.769531 C 48.882812 100.101562 49.175781 98.765625 49.988281 98.214844 Z M 51.5625 119.332031 C 51.5625 119.332031 52.035156 119.902344 52.457031 120.527344 C 52.914062 121.136719 53.378906 121.773438 53.214844 122.003906 C 53.191406 122.066406 50.261719 120.984375 51.5625 119.332031 Z M 52.859375 123.40625 C 52.828125 123.449219 53.160156 124.003906 53.652344 124.828125 C 54.148438 125.652344 54.765625 126.75 55.542969 127.804688 C 57.039062 129.945312 58.285156 132.257812 57.988281 133.070312 C 58.023438 132.886719 56.398438 131.113281 54.871094 129.015625 C 53.246094 126.980469 52.207031 124.425781 52.859375 123.402344 Z M 121.113281 168.179688 Z M 121.113281 168.179688 " fill-opacity="1" fill-rule="evenodd"/></g></g></g><g clip-path="url(#62ef46f26f)"><g clip-path="url(#a9419d4f13)"><g clip-path="url(#c8dfc423e1)"><path fill="#e1d6c0" d="M 122.242188 32.191406 C 113.324219 32.089844 104.703125 33.644531 96.378906 36.855469 C 88.636719 39.839844 81.628906 44.042969 75.351562 49.472656 C 74.925781 49.824219 74.460938 50.238281 73.964844 50.6875 C 73.464844 51.132812 73.011719 51.71875 72.5 52.28125 C 71.492188 53.421875 70.382812 54.632812 69.269531 55.816406 C 67.277344 58.410156 64.960938 60.625 63.050781 61.863281 C 63.484375 61.65625 63.945312 60.496094 64.664062 59.363281 C 65.367188 58.21875 66.121094 56.929688 66.726562 56.230469 L 68.007812 54.738281 C 68.441406 54.25 68.9375 53.824219 69.398438 53.359375 L 72.203125 50.613281 C 73.097656 49.648438 74.1875 48.921875 75.171875 48.058594 L 78.207031 45.578125 C 82.46875 42.585938 86.898438 39.742188 91.714844 37.695312 C 101.246094 33.46875 111.839844 31.269531 122.242188 32.191406 Z M 122.242188 32.191406 " fill-opacity="1" fill-rule="evenodd"/></g></g></g><g clip-path="url(#50bdea4f9a)"><g clip-path="url(#daf231b93c)"><g clip-path="url(#2cdc0e45e5)"><path fill="#e1d6c0" d="M 71.882812 49.050781 C 72.417969 49.171875 69.984375 51.585938 68.007812 53.347656 C 66.117188 55.1875 64.75 56.523438 66.808594 53.714844 C 66.871094 53.515625 71.074219 48.898438 71.882812 49.050781 Z M 71.882812 49.050781 " fill-opacity="1" fill-rule="evenodd"/></g></g></g><g clip-path="url(#8c9d8763e6)"><g clip-path="url(#58edd2c8f1)"><g clip-path="url(#275035e8d4)"><path fill="#e1d6c0" d="M 151.910156 43.097656 C 151.960938 43.523438 151.835938 42.4375 151.910156 43.097656 Z M 151.910156 43.097656 " fill-opacity="1" fill-rule="evenodd"/></g></g></g><g clip-path="url(#6307b60b5b)"><g clip-path="url(#d621bf709e)"><g clip-path="url(#1b95a499cb)"><path fill="#e1d6c0" d="M 150.269531 42.136719 C 150.460938 43.4375 143.53125 38.640625 148.625 41.175781 C 148.839844 41.300781 150.234375 41.890625 150.269531 42.136719 Z M 150.269531 42.136719 " fill-opacity="1" fill-rule="evenodd"/></g></g></g><g clip-path="url(#2da10043c0)"><g clip-path="url(#67b837549c)"><g clip-path="url(#c74965d13c)"><path fill="#e1d6c0" d="M 146.394531 39.976562 C 146.496094 40.46875 144.429688 40.421875 144.320312 39.921875 C 144.210938 39.417969 146.28125 39.46875 146.394531 39.976562 Z M 146.394531 39.976562 " fill-opacity="1" fill-rule="evenodd"/></g></g></g><g clip-path="url(#ede11349a3)"><g clip-path="url(#e8448b81bd)"><g clip-path="url(#e22a3861d0)"><path fill="#e1d6c0" d="M 67.855469 151.152344 C 67.910156 150.847656 70.414062 153.035156 73.242188 155.082031 L 77.375 157.867188 C 78.546875 158.703125 79.5625 159.125 79.820312 159.320312 C 80.769531 159.875 82.039062 160.46875 83.40625 161.082031 C 84.773438 161.691406 86.339844 162.097656 87.730469 162.632812 C 90.511719 163.734375 93.015625 164.445312 93.425781 165.664062 C 93.378906 165.429688 90.472656 164.890625 87.457031 163.652344 C 85.945312 163.058594 84.277344 162.570312 82.964844 161.898438 C 81.644531 161.25 80.539062 160.683594 79.953125 160.347656 C 79.332031 159.945312 78.152344 159.527344 76.898438 158.796875 C 75.644531 158.066406 74.171875 157.246094 72.773438 156.378906 C 71.332031 155.566406 70.164062 154.460938 69.253906 153.554688 C 68.339844 152.644531 67.800781 151.777344 67.855469 151.152344 Z M 67.855469 151.152344 " fill-opacity="1" fill-rule="evenodd"/></g></g></g><g clip-path="url(#c5ed511337)"><g clip-path="url(#ee1bb6f708)"><g clip-path="url(#2cb800c189)"><path fill="#e1d6c0" d="M 122.242188 32.191406 C 123.117188 32.234375 126.242188 31.902344 129.292969 32.132812 C 132.3125 32.472656 135.316406 32.933594 135.667969 33.988281 C 135.320312 32.949219 132.144531 33.054688 129.101562 33.003906 C 126.019531 33.070312 122.976562 33.398438 122.242188 32.191406 Z M 122.242188 32.191406 " fill-opacity="1" fill-rule="evenodd"/></g></g></g><g clip-path="url(#b00706ff14)"><g clip-path="url(#908ae980cf)"><g clip-path="url(#50c4386f94)"><path fill="#e1d6c0" d="M 150.363281 39.390625 C 149.953125 39.222656 148.976562 38.824219 147.710938 38.382812 C 146.40625 38.015625 144.835938 37.566406 143.3125 37.085938 L 141.09375 36.351562 C 140.367188 36.160156 139.691406 35.960938 139.101562 35.75 C 137.925781 35.335938 137.089844 34.875 136.90625 34.402344 C 137.113281 34.933594 137.980469 35.261719 139.21875 35.503906 C 139.832031 35.628906 140.542969 35.726562 141.300781 35.824219 L 143.613281 36.289062 C 145.195312 36.617188 146.816406 36.988281 148.09375 37.453125 C 149.339844 37.980469 150.199219 38.65625 150.363281 39.390625 Z M 150.363281 39.390625 " fill-opacity="1" fill-rule="evenodd"/></g></g></g><g clip-path="url(#a662736554)"><g clip-path="url(#2daeb11851)"><g clip-path="url(#d43df1c2f1)"><path fill="#e1d6c0" d="M 150.363281 39.390625 C 151.875 40.292969 154.539062 40.78125 156.644531 41.855469 C 158.800781 42.839844 160.648438 43.964844 160.683594 45.335938 C 160.660156 44.476562 158.117188 43.464844 155.644531 42.4375 C 154.433594 41.878906 153.128906 41.480469 152.136719 41.011719 C 151.148438 40.542969 150.464844 40.015625 150.363281 39.390625 Z M 150.363281 39.390625 " fill-opacity="1" fill-rule="evenodd"/></g></g></g><g fill="#bc1823" fill-opacity="1"><g transform="translate(101.634596, 83.97251)"><g><path d="M 47.578125 -37.671875 C 47.765625 -37.671875 47.9375 -37.671875 48.09375 -37.671875 L 48.09375 -37.265625 C 46.84375 -37.210938 45.65625 -36.921875 44.53125 -36.390625 C 43.414062 -35.859375 42.472656 -35.226562 41.703125 -34.5 C 40.929688 -33.769531 40.210938 -32.882812 39.546875 -31.84375 C 38.484375 -30.195312 37.582031 -28.304688 36.84375 -26.171875 L 29.171875 -3.953125 C 28.640625 -2.273438 28.347656 -0.796875 28.296875 0.484375 L 27.9375 0.484375 L 19.796875 -22.3125 L 13.375 -2.1875 C 12.414062 0.8125 10.875 3.148438 8.75 4.828125 C 7.207031 6.078125 5.476562 6.703125 3.5625 6.703125 C 2.894531 6.703125 2.1875 6.625 1.4375 6.46875 L 1.515625 6.0625 C 1.921875 6.144531 2.378906 6.1875 2.890625 6.1875 C 3.410156 6.1875 4.101562 6.023438 4.96875 5.703125 C 5.832031 5.390625 6.691406 4.816406 7.546875 3.984375 C 9.273438 2.304688 10.609375 0.207031 11.546875 -2.3125 L 3.484375 -25.09375 C 3.160156 -25.894531 2.664062 -26.5 2 -26.90625 C 1.332031 -27.320312 0.65625 -27.53125 -0.03125 -27.53125 L -0.359375 -27.53125 L -0.359375 -27.9375 L 8.5 -27.9375 L 8.5 -27.53125 L 8.140625 -27.53125 C 7.585938 -27.53125 7.171875 -27.347656 6.890625 -26.984375 C 6.609375 -26.628906 6.46875 -26.289062 6.46875 -25.96875 C 6.46875 -25.65625 6.507812 -25.363281 6.59375 -25.09375 L 12.65625 -5.671875 L 20.078125 -28.578125 L 20.4375 -28.53125 L 28.34375 -6.421875 L 34.25 -26.171875 C 34.9375 -28.492188 36 -30.582031 37.4375 -32.4375 C 40.09375 -35.925781 43.472656 -37.671875 47.578125 -37.671875 Z M 47.578125 -37.671875 "/></g></g></g><g fill="#bc1823" fill-opacity="1"><g transform="translate(62.334, 84.456187)"><g><path d="M 49.875 8.953125 C 45.519531 8.953125 41.953125 7.5625 39.171875 4.78125 C 37.109375 2.726562 35.753906 0.140625 35.109375 -2.984375 C 31.847656 -0.515625 27.847656 0.71875 23.109375 0.71875 C 19.367188 0.71875 15.960938 -0.09375 12.890625 -1.71875 C 9.816406 -3.351562 7.414062 -5.59375 5.6875 -8.4375 C 3.957031 -11.289062 3.09375 -14.5 3.09375 -18.0625 C 3.09375 -21.632812 3.957031 -24.851562 5.6875 -27.71875 C 7.414062 -30.582031 9.804688 -32.800781 12.859375 -34.375 C 15.921875 -35.957031 19.335938 -36.75 23.109375 -36.75 C 27.847656 -36.75 32.015625 -35.582031 35.609375 -33.25 L 36.640625 -25.984375 L 36.1875 -25.984375 C 35.15625 -29.972656 32.820312 -32.6875 29.1875 -34.125 C 27.394531 -34.84375 25.367188 -35.203125 23.109375 -35.203125 C 18.472656 -35.203125 14.617188 -33.585938 11.546875 -30.359375 C 8.484375 -27.140625 6.953125 -23.050781 6.953125 -18.09375 C 6.953125 -13.132812 8.492188 -9.023438 11.578125 -5.765625 C 14.671875 -2.503906 18.515625 -0.859375 23.109375 -0.828125 C 25.335938 -0.828125 27.460938 -1.21875 29.484375 -2 C 31.515625 -2.789062 33.25 -3.890625 34.6875 -5.296875 L 34.6875 -14.40625 C 34.6875 -15.164062 34.460938 -15.742188 34.015625 -16.140625 C 33.578125 -16.535156 32.941406 -16.734375 32.109375 -16.734375 L 31.296875 -16.734375 L 31.296875 -17.234375 L 41.375 -17.234375 L 41.375 -16.734375 L 40.609375 -16.734375 C 39.753906 -16.734375 39.101562 -16.535156 38.65625 -16.140625 C 38.207031 -15.742188 38 -15.164062 38.03125 -14.40625 L 38.03125 -6.484375 C 38.238281 -1.066406 40.007812 2.804688 43.34375 5.140625 C 45.675781 6.796875 48.691406 7.625 52.390625 7.625 C 53.941406 7.625 55.625 7.46875 57.4375 7.15625 L 57.484375 7.671875 C 54.742188 8.523438 52.207031 8.953125 49.875 8.953125 Z M 49.875 8.953125 "/></g></g></g><g fill="#ffffff" fill-opacity="1"><g transform="translate(4.284042, 131.376407)"><g><path d="M 17.375 -27.84375 C 18.800781 -27.84375 20.046875 -27.707031 21.109375 -27.4375 C 22.179688 -27.175781 23.257812 -26.832031 24.34375 -26.40625 C 25.113281 -26.113281 25.578125 -25.96875 25.734375 -25.96875 C 26.054688 -25.96875 26.332031 -26.125 26.5625 -26.4375 C 26.800781 -26.757812 26.945312 -27.226562 27 -27.84375 L 27.765625 -27.84375 L 28.46875 -19.15625 L 27.765625 -19.15625 C 27.390625 -20.664062 26.671875 -21.960938 25.609375 -23.046875 C 24.554688 -24.128906 23.328125 -24.945312 21.921875 -25.5 C 20.523438 -26.050781 19.097656 -26.328125 17.640625 -26.328125 C 15.660156 -26.328125 13.835938 -25.832031 12.171875 -24.84375 C 10.503906 -23.851562 9.164062 -22.398438 8.15625 -20.484375 C 7.15625 -18.566406 6.65625 -16.273438 6.65625 -13.609375 C 6.65625 -11.140625 7.175781 -8.941406 8.21875 -7.015625 C 9.269531 -5.085938 10.6875 -3.585938 12.46875 -2.515625 C 14.257812 -1.441406 16.195312 -0.90625 18.28125 -0.90625 C 19.394531 -0.90625 20.425781 -1.054688 21.375 -1.359375 C 22.320312 -1.671875 23.328125 -2.179688 24.390625 -2.890625 L 24.390625 -10.75 C 24.390625 -11.90625 24.082031 -12.710938 23.46875 -13.171875 C 22.863281 -13.640625 21.898438 -13.890625 20.578125 -13.921875 L 20.578125 -14.640625 L 32.28125 -14.640625 L 32.28125 -13.921875 C 31.300781 -13.835938 30.566406 -13.691406 30.078125 -13.484375 C 29.585938 -13.273438 29.226562 -12.90625 29 -12.375 C 28.78125 -11.84375 28.671875 -11.050781 28.671875 -10 L 28.671875 -2.265625 C 26.742188 -1.203125 25.023438 -0.457031 23.515625 -0.03125 C 22.003906 0.382812 20.15625 0.59375 17.96875 0.59375 C 14.53125 0.59375 11.582031 -0.0664062 9.125 -1.390625 C 6.664062 -2.710938 4.8125 -4.394531 3.5625 -6.4375 C 2.320312 -8.488281 1.703125 -10.597656 1.703125 -12.765625 C 1.703125 -15.515625 2.394531 -18.039062 3.78125 -20.34375 C 5.175781 -22.644531 7.066406 -24.46875 9.453125 -25.8125 C 11.847656 -27.164062 14.488281 -27.84375 17.375 -27.84375 Z M 17.375 -27.84375 "/></g></g></g><g fill="#ffffff" fill-opacity="1"><g transform="translate(33.184495, 131.376407)"><g><path d="M 11.296875 -18.84375 C 12.859375 -18.84375 14.316406 -18.425781 15.671875 -17.59375 C 17.035156 -16.757812 18.117188 -15.644531 18.921875 -14.25 C 19.734375 -12.863281 20.140625 -11.378906 20.140625 -9.796875 C 20.140625 -7.941406 19.703125 -6.222656 18.828125 -4.640625 C 17.960938 -3.054688 16.796875 -1.789062 15.328125 -0.84375 C 13.859375 0.09375 12.289062 0.5625 10.625 0.5625 C 9.039062 0.5625 7.566406 0.144531 6.203125 -0.6875 C 4.835938 -1.519531 3.757812 -2.644531 2.96875 -4.0625 C 2.175781 -5.476562 1.78125 -7.019531 1.78125 -8.6875 C 1.78125 -10.476562 2.21875 -12.15625 3.09375 -13.71875 C 3.96875 -15.28125 5.132812 -16.523438 6.59375 -17.453125 C 8.0625 -18.378906 9.628906 -18.84375 11.296875 -18.84375 Z M 5.359375 -10.265625 C 5.359375 -8.710938 5.601562 -7.210938 6.09375 -5.765625 C 6.582031 -4.328125 7.285156 -3.144531 8.203125 -2.21875 C 9.128906 -1.289062 10.242188 -0.828125 11.546875 -0.828125 C 13.046875 -0.828125 14.257812 -1.492188 15.1875 -2.828125 C 16.113281 -4.171875 16.578125 -5.9375 16.578125 -8.125 C 16.578125 -9.875 16.3125 -11.453125 15.78125 -12.859375 C 15.25 -14.273438 14.507812 -15.394531 13.5625 -16.21875 C 12.613281 -17.039062 11.53125 -17.453125 10.3125 -17.453125 C 8.800781 -17.453125 7.597656 -16.800781 6.703125 -15.5 C 5.804688 -14.207031 5.359375 -12.460938 5.359375 -10.265625 Z M 5.359375 -10.265625 "/></g></g></g><g fill="#ffffff" fill-opacity="1"><g transform="translate(51.340971, 131.376407)"><g><path d="M 11.296875 -18.84375 C 12.859375 -18.84375 14.316406 -18.425781 15.671875 -17.59375 C 17.035156 -16.757812 18.117188 -15.644531 18.921875 -14.25 C 19.734375 -12.863281 20.140625 -11.378906 20.140625 -9.796875 C 20.140625 -7.941406 19.703125 -6.222656 18.828125 -4.640625 C 17.960938 -3.054688 16.796875 -1.789062 15.328125 -0.84375 C 13.859375 0.09375 12.289062 0.5625 10.625 0.5625 C 9.039062 0.5625 7.566406 0.144531 6.203125 -0.6875 C 4.835938 -1.519531 3.757812 -2.644531 2.96875 -4.0625 C 2.175781 -5.476562 1.78125 -7.019531 1.78125 -8.6875 C 1.78125 -10.476562 2.21875 -12.15625 3.09375 -13.71875 C 3.96875 -15.28125 5.132812 -16.523438 6.59375 -17.453125 C 8.0625 -18.378906 9.628906 -18.84375 11.296875 -18.84375 Z M 5.359375 -10.265625 C 5.359375 -8.710938 5.601562 -7.210938 6.09375 -5.765625 C 6.582031 -4.328125 7.285156 -3.144531 8.203125 -2.21875 C 9.128906 -1.289062 10.242188 -0.828125 11.546875 -0.828125 C 13.046875 -0.828125 14.257812 -1.492188 15.1875 -2.828125 C 16.113281 -4.171875 16.578125 -5.9375 16.578125 -8.125 C 16.578125 -9.875 16.3125 -11.453125 15.78125 -12.859375 C 15.25 -14.273438 14.507812 -15.394531 13.5625 -16.21875 C 12.613281 -17.039062 11.53125 -17.453125 10.3125 -17.453125 C 8.800781 -17.453125 7.597656 -16.800781 6.703125 -15.5 C 5.804688 -14.207031 5.359375 -12.460938 5.359375 -10.265625 Z M 5.359375 -10.265625 "/></g></g></g><g fill="#ffffff" fill-opacity="1"><g transform="translate(69.497449, 131.376407)"><g><path d="M 18.046875 -28.4375 L 18.046875 -5.28125 C 18.046875 -4.007812 18.179688 -3.175781 18.453125 -2.78125 C 18.734375 -2.382812 19.164062 -2.1875 19.75 -2.1875 C 20.007812 -2.1875 20.40625 -2.273438 20.9375 -2.453125 L 21.21875 -1.828125 L 14.796875 0.46875 L 14.796875 -2.140625 C 13.890625 -1.210938 13 -0.53125 12.125 -0.09375 C 11.257812 0.34375 10.296875 0.5625 9.234375 0.5625 C 7.804688 0.5625 6.484375 0.148438 5.265625 -0.671875 C 4.054688 -1.492188 3.085938 -2.601562 2.359375 -4 C 1.628906 -5.40625 1.265625 -6.914062 1.265625 -8.53125 C 1.265625 -10.351562 1.691406 -12.054688 2.546875 -13.640625 C 3.410156 -15.222656 4.554688 -16.484375 5.984375 -17.421875 C 7.410156 -18.367188 8.945312 -18.84375 10.59375 -18.84375 C 11.351562 -18.84375 12.0625 -18.734375 12.71875 -18.515625 C 13.382812 -18.304688 14.078125 -17.953125 14.796875 -17.453125 L 14.796875 -23.125 C 14.796875 -24.789062 14.226562 -25.625 13.09375 -25.625 C 12.90625 -25.625 12.726562 -25.601562 12.5625 -25.5625 C 12.40625 -25.519531 12.207031 -25.445312 11.96875 -25.34375 L 11.65625 -26.015625 L 17.375 -28.4375 Z M 4.84375 -9.953125 C 4.84375 -8.421875 5.125 -7.023438 5.6875 -5.765625 C 6.257812 -4.515625 7.023438 -3.519531 7.984375 -2.78125 C 8.953125 -2.039062 10.019531 -1.671875 11.1875 -1.671875 C 12.613281 -1.671875 13.816406 -2.273438 14.796875 -3.484375 L 14.796875 -12.453125 C 14.796875 -13.796875 14.515625 -14.859375 13.953125 -15.640625 C 13.398438 -16.421875 12.765625 -16.960938 12.046875 -17.265625 C 11.335938 -17.566406 10.691406 -17.71875 10.109375 -17.71875 C 9.179688 -17.71875 8.316406 -17.375 7.515625 -16.6875 C 6.710938 -16.007812 6.066406 -15.070312 5.578125 -13.875 C 5.085938 -12.6875 4.84375 -11.378906 4.84375 -9.953125 Z M 4.84375 -9.953125 "/></g></g></g><g fill="#ffffff" fill-opacity="1"><g transform="translate(87.653922, 131.376407)"><g><path d="M 7.6875 -17.6875 C 6.582031 -17.632812 6.03125 -17.195312 6.03125 -16.375 C 6.03125 -15.925781 6.160156 -15.359375 6.421875 -14.671875 L 10.15625 -4.4375 L 14 -13 L 13.09375 -15.390625 C 12.71875 -16.335938 12.359375 -16.957031 12.015625 -17.25 C 11.671875 -17.539062 11.050781 -17.6875 10.15625 -17.6875 L 10.15625 -18.40625 L 18.59375 -18.40625 L 18.59375 -17.6875 C 17.09375 -17.6875 16.34375 -17.195312 16.34375 -16.21875 C 16.34375 -15.789062 16.421875 -15.378906 16.578125 -14.984375 L 20.46875 -4.71875 L 23.71875 -13.203125 C 23.875 -13.628906 23.976562 -13.894531 24.03125 -14 C 24.238281 -14.582031 24.398438 -15.050781 24.515625 -15.40625 C 24.640625 -15.757812 24.703125 -16.046875 24.703125 -16.265625 C 24.703125 -16.785156 24.535156 -17.144531 24.203125 -17.34375 C 23.878906 -17.539062 23.347656 -17.65625 22.609375 -17.6875 L 22.609375 -18.40625 L 28.03125 -18.40625 L 28.03125 -17.6875 C 27.5625 -17.65625 27.144531 -17.398438 26.78125 -16.921875 C 26.425781 -16.453125 25.972656 -15.476562 25.421875 -14 L 19.90625 0.46875 L 19.109375 0.46875 L 14.671875 -11.265625 L 9.4375 0.46875 L 8.6875 0.46875 L 3.453125 -13.71875 C 3.023438 -14.851562 2.691406 -15.664062 2.453125 -16.15625 C 2.222656 -16.644531 1.960938 -17.019531 1.671875 -17.28125 C 1.378906 -17.550781 0.976562 -17.6875 0.46875 -17.6875 L 0.46875 -18.40625 L 7.6875 -18.40625 Z M 7.6875 -17.6875 "/></g></g></g><g fill="#ffffff" fill-opacity="1"><g transform="translate(112.431215, 131.376407)"><g><path d="M 5.390625 -28.546875 C 5.972656 -28.546875 6.460938 -28.347656 6.859375 -27.953125 C 7.253906 -27.554688 7.453125 -27.082031 7.453125 -26.53125 C 7.453125 -25.945312 7.253906 -25.457031 6.859375 -25.0625 C 6.460938 -24.664062 5.972656 -24.46875 5.390625 -24.46875 C 4.835938 -24.46875 4.363281 -24.664062 3.96875 -25.0625 C 3.570312 -25.457031 3.375 -25.945312 3.375 -26.53125 C 3.375 -27.082031 3.570312 -27.554688 3.96875 -27.953125 C 4.363281 -28.347656 4.835938 -28.546875 5.390625 -28.546875 Z M 7.140625 -4.125 C 7.140625 -2.832031 7.347656 -1.945312 7.765625 -1.46875 C 8.191406 -0.988281 8.878906 -0.738281 9.828125 -0.71875 L 9.828125 0 L 0.90625 0 L 0.90625 -0.71875 C 1.988281 -0.71875 2.753906 -0.96875 3.203125 -1.46875 C 3.660156 -1.96875 3.890625 -2.878906 3.890625 -4.203125 L 3.890625 -13.796875 C 3.890625 -14.515625 3.726562 -15.097656 3.40625 -15.546875 C 3.09375 -15.992188 2.601562 -16.21875 1.9375 -16.21875 C 1.644531 -16.21875 1.382812 -16.148438 1.15625 -16.015625 L 0.90625 -16.734375 L 6.421875 -18.84375 L 7.140625 -18.84375 Z M 7.140625 -4.125 "/></g></g></g><g fill="#ffffff" fill-opacity="1"><g transform="translate(119.447241, 131.376407)"><g><path d="M 7.171875 -28.4375 L 7.171875 -4.15625 C 7.171875 -2.84375 7.363281 -1.941406 7.75 -1.453125 C 8.132812 -0.960938 8.828125 -0.71875 9.828125 -0.71875 L 9.828125 0 L 0.90625 0 L 0.90625 -0.71875 C 1.644531 -0.71875 2.226562 -0.796875 2.65625 -0.953125 C 3.082031 -1.109375 3.398438 -1.4375 3.609375 -1.9375 C 3.816406 -2.445312 3.921875 -3.1875 3.921875 -4.15625 L 3.921875 -22.921875 C 3.921875 -24.691406 3.300781 -25.578125 2.0625 -25.578125 C 1.71875 -25.578125 1.414062 -25.507812 1.15625 -25.375 L 0.90625 -26.046875 L 6.46875 -28.4375 Z M 7.171875 -28.4375 "/></g></g></g><g fill="#ffffff" fill-opacity="1"><g transform="translate(126.463267, 131.376407)"><g><path d="M 7.171875 -28.4375 L 7.171875 -4.15625 C 7.171875 -2.84375 7.363281 -1.941406 7.75 -1.453125 C 8.132812 -0.960938 8.828125 -0.71875 9.828125 -0.71875 L 9.828125 0 L 0.90625 0 L 0.90625 -0.71875 C 1.644531 -0.71875 2.226562 -0.796875 2.65625 -0.953125 C 3.082031 -1.109375 3.398438 -1.4375 3.609375 -1.9375 C 3.816406 -2.445312 3.921875 -3.1875 3.921875 -4.15625 L 3.921875 -22.921875 C 3.921875 -24.691406 3.300781 -25.578125 2.0625 -25.578125 C 1.71875 -25.578125 1.414062 -25.507812 1.15625 -25.375 L 0.90625 -26.046875 L 6.46875 -28.4375 Z M 7.171875 -28.4375 "/></g></g></g><g fill="#ffffff" fill-opacity="1"><g transform="translate(133.479293, 131.376407)"><g/></g></g><g fill="#ffffff" fill-opacity="1"><g transform="translate(139.662768, 131.376407)"><g><path d="M 13.609375 -26.53125 L 13.359375 -26.53125 C 12.035156 -26.53125 11.078125 -26.289062 10.484375 -25.8125 C 9.890625 -25.34375 9.59375 -24.484375 9.59375 -23.234375 L 9.59375 -15.15625 L 23 -15.15625 L 23 -23.28125 C 23 -24.519531 22.691406 -25.367188 22.078125 -25.828125 C 21.472656 -26.296875 20.507812 -26.53125 19.1875 -26.53125 L 18.953125 -26.53125 L 18.953125 -27.25 L 31.25 -27.25 L 31.25 -26.53125 C 29.84375 -26.53125 28.828125 -26.304688 28.203125 -25.859375 C 27.585938 -25.410156 27.28125 -24.523438 27.28125 -23.203125 L 27.28125 -3.96875 C 27.28125 -2.664062 27.585938 -1.796875 28.203125 -1.359375 C 28.828125 -0.929688 29.84375 -0.71875 31.25 -0.71875 L 31.25 0 L 18.953125 0 L 18.953125 -0.71875 C 20.410156 -0.71875 21.445312 -0.929688 22.0625 -1.359375 C 22.6875 -1.796875 23 -2.675781 23 -4 L 23 -13.5625 L 9.59375 -13.5625 L 9.59375 -4 C 9.59375 -2.675781 9.898438 -1.796875 10.515625 -1.359375 C 11.140625 -0.929688 12.171875 -0.71875 13.609375 -0.71875 L 13.609375 0 L 1.390625 0 L 1.390625 -0.71875 C 2.785156 -0.738281 3.785156 -0.972656 4.390625 -1.421875 C 5.003906 -1.878906 5.3125 -2.738281 5.3125 -4 L 5.3125 -23.28125 C 5.3125 -24.5 5.003906 -25.34375 4.390625 -25.8125 C 3.785156 -26.289062 2.851562 -26.53125 1.59375 -26.53125 L 1.390625 -26.53125 L 1.390625 -27.25 L 13.609375 -27.25 Z M 13.609375 -26.53125 "/></g></g></g><g fill="#ffffff" fill-opacity="1"><g transform="translate(168.563218, 131.376407)"><g><path d="M 11.296875 -18.84375 C 12.859375 -18.84375 14.316406 -18.425781 15.671875 -17.59375 C 17.035156 -16.757812 18.117188 -15.644531 18.921875 -14.25 C 19.734375 -12.863281 20.140625 -11.378906 20.140625 -9.796875 C 20.140625 -7.941406 19.703125 -6.222656 18.828125 -4.640625 C 17.960938 -3.054688 16.796875 -1.789062 15.328125 -0.84375 C 13.859375 0.09375 12.289062 0.5625 10.625 0.5625 C 9.039062 0.5625 7.566406 0.144531 6.203125 -0.6875 C 4.835938 -1.519531 3.757812 -2.644531 2.96875 -4.0625 C 2.175781 -5.476562 1.78125 -7.019531 1.78125 -8.6875 C 1.78125 -10.476562 2.21875 -12.15625 3.09375 -13.71875 C 3.96875 -15.28125 5.132812 -16.523438 6.59375 -17.453125 C 8.0625 -18.378906 9.628906 -18.84375 11.296875 -18.84375 Z M 5.359375 -10.265625 C 5.359375 -8.710938 5.601562 -7.210938 6.09375 -5.765625 C 6.582031 -4.328125 7.285156 -3.144531 8.203125 -2.21875 C 9.128906 -1.289062 10.242188 -0.828125 11.546875 -0.828125 C 13.046875 -0.828125 14.257812 -1.492188 15.1875 -2.828125 C 16.113281 -4.171875 16.578125 -5.9375 16.578125 -8.125 C 16.578125 -9.875 16.3125 -11.453125 15.78125 -12.859375 C 15.25 -14.273438 14.507812 -15.394531 13.5625 -16.21875 C 12.613281 -17.039062 11.53125 -17.453125 10.3125 -17.453125 C 8.800781 -17.453125 7.597656 -16.800781 6.703125 -15.5 C 5.804688 -14.207031 5.359375 -12.460938 5.359375 -10.265625 Z M 5.359375 -10.265625 "/></g></g></g><g fill="#ffffff" fill-opacity="1"><g transform="translate(186.719691, 131.376407)"><g><path d="M 6.578125 -24.234375 L 7.21875 -24.234375 L 7.21875 -18.40625 L 11.375 -18.40625 L 11.375 -17.171875 L 7.21875 -17.171875 L 7.21875 -4.40625 C 7.21875 -3.71875 7.414062 -3.101562 7.8125 -2.5625 C 8.207031 -2.019531 8.765625 -1.75 9.484375 -1.75 C 9.953125 -1.75 10.367188 -1.859375 10.734375 -2.078125 C 11.109375 -2.304688 11.507812 -2.695312 11.9375 -3.25 L 12.734375 -3.25 C 12.046875 -1.976562 11.300781 -1.023438 10.5 -0.390625 C 9.707031 0.242188 8.785156 0.5625 7.734375 0.5625 C 6.566406 0.5625 5.644531 0.132812 4.96875 -0.71875 C 4.300781 -1.582031 3.96875 -2.757812 3.96875 -4.25 L 3.96875 -17.171875 L 1.15625 -17.171875 L 1.15625 -17.96875 C 2.5 -18.519531 3.632812 -19.332031 4.5625 -20.40625 C 5.488281 -21.476562 6.160156 -22.753906 6.578125 -24.234375 Z M 6.578125 -24.234375 "/></g></g></g><g fill="#ffffff" fill-opacity="1"><g transform="translate(196.193751, 131.376407)"><g><path d="M 9.3125 -18.84375 C 11.375 -18.84375 13.046875 -18.15625 14.328125 -16.78125 C 15.617188 -15.40625 16.265625 -13.617188 16.265625 -11.421875 L 3.8125 -11.421875 L 3.8125 -10.90625 C 3.8125 -9.5 4.085938 -8.15625 4.640625 -6.875 C 5.191406 -5.59375 5.96875 -4.554688 6.96875 -3.765625 C 7.976562 -2.972656 9.117188 -2.578125 10.390625 -2.578125 C 12.898438 -2.578125 14.660156 -3.976562 15.671875 -6.78125 L 16.265625 -6.46875 C 15.835938 -4.300781 14.960938 -2.585938 13.640625 -1.328125 C 12.316406 -0.0664062 10.734375 0.5625 8.890625 0.5625 C 7.515625 0.5625 6.238281 0.203125 5.0625 -0.515625 C 3.882812 -1.234375 2.929688 -2.304688 2.203125 -3.734375 C 1.472656 -5.160156 1.109375 -6.890625 1.109375 -8.921875 C 1.109375 -10.878906 1.453125 -12.609375 2.140625 -14.109375 C 2.828125 -15.617188 3.789062 -16.785156 5.03125 -17.609375 C 6.28125 -18.429688 7.707031 -18.84375 9.3125 -18.84375 Z M 8.203125 -17.453125 C 7.097656 -17.453125 6.140625 -17.015625 5.328125 -16.140625 C 4.523438 -15.265625 4.046875 -14.101562 3.890625 -12.65625 L 12.171875 -12.65625 C 12.117188 -14.082031 11.753906 -15.238281 11.078125 -16.125 C 10.410156 -17.007812 9.453125 -17.453125 8.203125 -17.453125 Z M 8.203125 -17.453125 "/></g></g></g><g fill="#ffffff" fill-opacity="1"><g transform="translate(209.830607, 131.376407)"><g><path d="M 7.171875 -28.4375 L 7.171875 -4.15625 C 7.171875 -2.84375 7.363281 -1.941406 7.75 -1.453125 C 8.132812 -0.960938 8.828125 -0.71875 9.828125 -0.71875 L 9.828125 0 L 0.90625 0 L 0.90625 -0.71875 C 1.644531 -0.71875 2.226562 -0.796875 2.65625 -0.953125 C 3.082031 -1.109375 3.398438 -1.4375 3.609375 -1.9375 C 3.816406 -2.445312 3.921875 -3.1875 3.921875 -4.15625 L 3.921875 -22.921875 C 3.921875 -24.691406 3.300781 -25.578125 2.0625 -25.578125 C 1.71875 -25.578125 1.414062 -25.507812 1.15625 -25.375 L 0.90625 -26.046875 L 6.46875 -28.4375 Z M 7.171875 -28.4375 "/></g></g></g></svg>